<?xml version="1.0" encoding="UTF-8"?>
<svg xmlns="http://www.w3.org/2000/svg" xmlns:xlink="http://www.w3.org/1999/xlink" width="700pt" height="815.13pt" viewBox="0 0 700 815.13" version="1.1">
<defs>
<clipPath id="clip1">
  <path d="M 0 0 L 700 0 L 700 815.128906 L 0 815.128906 Z M 0 0 "/>
</clipPath>
</defs>
<g id="surface1">
<g clip-path="url(#clip1)" clip-rule="nonzero">
<path style=" stroke:none;fill-rule:nonzero;fill:rgb(97.299194%,33.299255%,2.398682%);fill-opacity:1;" d="M 0 216.722656 C 0 205.289063 8.101563 191.261719 18 185.546875 L 332 4.289063 C 341.902344 -1.425781 358.101563 -1.425781 368.003906 4.289063 L 682 185.546875 C 691.898438 191.261719 700 205.289063 700 216.722656 L 700 598.410156 C 700 609.84375 691.898438 623.871094 682 629.585938 L 368.003906 810.84375 C 358.101563 816.558594 341.902344 816.558594 332 810.84375 L 18 629.585938 C 8.101563 623.871094 0 609.84375 0 598.410156 "/>
</g>
<path style=" stroke:none;fill-rule:nonzero;fill:rgb(25.099182%,0%,22.399902%);fill-opacity:1;" d="M 175.410156 132.476563 C 165.574219 126.652344 165.625 117.210938 175.527344 111.496094 L 219.171875 86.296875 C 229.070313 80.582031 244.175781 79.949219 252.734375 84.890625 C 261.292969 89.832031 276.394531 98.550781 286.296875 104.265625 L 570.550781 268.382813 C 580.449219 274.097656 588.550781 288.125 588.550781 299.558594 L 588.550781 430.523438 C 588.550781 438.671875 580.449219 450.015625 570.550781 455.730469 L 522.488281 483.476563 C 512.589844 489.195313 504.488281 484.515625 504.488281 473.085938 L 504.488281 348.089844 C 504.488281 336.660156 496.441406 322.539063 486.601563 316.71875 "/>
<path style=" stroke:none;fill-rule:nonzero;fill:rgb(25.099182%,0%,22.399902%);fill-opacity:1;" d="M 238.707031 169.949219 L 157.527344 121.886719 L 237.171875 75.90625 L 307.058594 116.253906 "/>
<path style=" stroke:none;fill-rule:nonzero;fill:rgb(25.099182%,0%,22.399902%);fill-opacity:1;" d="M 504.386719 494.246094 L 588.550781 445.335938 L 588.425781 406.902344 L 504.613281 457.460938 Z M 504.386719 494.246094 "/>
<path style=" stroke:none;fill-rule:nonzero;fill:rgb(25.099182%,0%,22.399902%);fill-opacity:1;" d="M 57.253906 275.980469 L 189.90625 353.527344 L 189.90625 380.523438 L 57.253906 302.976563 Z M 57.253906 275.980469 "/>
<path style=" stroke:none;fill-rule:nonzero;fill:rgb(25.099182%,0%,22.399902%);fill-opacity:1;" d="M 189.90625 423.578125 L 189.90625 450.574219 L 57.253906 373.027344 L 57.253906 346.03125 Z M 189.90625 423.578125 "/>
</g>
</svg>
